<?xml version="1.0" encoding="iso-8859-1"?>
<!-- Generator: Adobe Illustrator 18.0.0, SVG Export Plug-In . SVG Version: 6.00 Build 0)  -->
<!DOCTYPE svg PUBLIC "-//W3C//DTD SVG 1.1//EN" "http://www.w3.org/Graphics/SVG/1.1/DTD/svg11.dtd">
<svg version="1.1" id="Capa_1" xmlns="http://www.w3.org/2000/svg" xmlns:xlink="http://www.w3.org/1999/xlink" x="0px" y="0px"
	 viewBox="0 0 490 490" style="enable-background:new 0 0 490 490;" xml:space="preserve">
<g>
	<path d="M312.001,55.518c-0.242-1.518-2.773-15.225-15.783-28.85C284.606,14.502,261.905,0,219.722,0
		c-42.186,0-64.908,14.545-76.543,26.746c-13.021,13.658-15.57,27.238-15.82,28.76c-0.465,2.855,0.35,5.773,2.225,7.976
		c1.875,2.201,4.619,3.473,7.512,3.473c0.002,0,0.006,0,0.008,0h165.172c2.891-0.004,5.633-1.273,7.5-3.475
		C311.647,61.279,312.462,58.369,312.001,55.518z"/>
	<path d="M320.462,220.08h-51.514c-3.244,0-6.324,1.227-8.678,3.455l-39.768,37.644l-39.768-37.643
		c-2.354-2.23-5.439-3.457-8.684-3.457h-51.508c-42.992,0-77.967,34.973-77.967,77.965v141.781c0,6.963,5.666,12.629,12.631,12.629
		H248.28c1.359,0,2.457-1.102,2.457-2.457v-95.682c0-31.805,25.875-57.68,57.682-57.68h87.447c0.676,0,1.318-0.275,1.783-0.764
		c0.465-0.488,0.705-1.146,0.672-1.818C396.22,252.574,362.021,220.08,320.462,220.08z M170.872,307.383
		c0,2.965-2.404,5.369-5.369,5.369h-61.232c-2.967,0-5.371-2.404-5.371-5.369v-15.039c0-2.967,2.404-5.371,5.371-5.371h61.232
		c2.965,0,5.369,2.404,5.369,5.371V307.383z"/>
	<path d="M310.271,84.24c-3.08-1.725-7.781-1.967-12.076-1.967c-3.584,0-42.227-0.004-78.838-0.008
		c-36.605,0.004-75.246,0.008-78.832,0.008c-4.293,0-8.994,0.242-12.076,1.967c-9.707,5.438-7.592,27.416-6.707,36.459
		c1.9,19.43,9.717,38.016,22.172,53.037c18.725,22.582,46.809,35.293,75.443,35.482c28.641-0.189,56.725-12.9,75.451-35.482
		c12.453-15.021,20.268-33.607,22.168-53.037C317.86,111.656,319.981,89.678,310.271,84.24z M226.153,189.287
		c-2.275,0.207-4.541,0.297-6.797,0.297c-2.25,0-4.514-0.09-6.791-0.297c-39.496-3.559-70.967-37.355-71.557-77.023
		c22.666,17.287,50.502,25.945,78.348,25.977c27.852-0.031,55.688-8.689,78.354-25.977
		C297.122,151.932,265.651,185.729,226.153,189.287z"/>
	<path d="M410.095,318.912h-35.619v29.236c0,2.441-1.988,4.426-4.428,4.426h-19.475c-2.439,0-4.428-1.984-4.428-4.426v-29.236
		H310.53c-20.617,0-37.33,16.713-37.33,37.328v96.434c0,20.617,16.713,37.326,37.33,37.326h99.565
		c20.615,0,37.328-16.709,37.328-37.326V356.24C447.423,335.625,430.71,318.912,410.095,318.912z"/>
</g>
<g>
</g>
<g>
</g>
<g>
</g>
<g>
</g>
<g>
</g>
<g>
</g>
<g>
</g>
<g>
</g>
<g>
</g>
<g>
</g>
<g>
</g>
<g>
</g>
<g>
</g>
<g>
</g>
<g>
</g>
</svg>
