<?xml version="1.0" encoding="iso-8859-1"?>
<!-- Generator: Adobe Illustrator 19.0.0, SVG Export Plug-In . SVG Version: 6.00 Build 0)  -->
<svg version="1.1" id="Layer_1" xmlns="http://www.w3.org/2000/svg" xmlns:xlink="http://www.w3.org/1999/xlink" x="0px" y="0px"
	 viewBox="0 0 297 297" style="enable-background:new 0 0 297 297;" xml:space="preserve">
<g>
	<g>
		<path d="M276.967,277.536h-12.456c-1.356-15.687-5.293-60.105-7.855-77.193c-3.588-23.93-22.033-43.423-46.991-49.663
			l-23.463-5.866c-4.178-4.735-3.912-14.401-3.379-18.333c16.826-15.464,27.477-40.962,27.477-64.68
			c0-18.68-6.338-34.489-18.331-45.719C180.895,5.711,165.458,0,148.5,0s-32.395,5.711-43.47,16.081
			C93.038,27.311,86.699,43.121,86.699,61.8c0,23.721,10.654,49.221,27.482,64.685c0.477,3.46,0.913,13.464-3.389,18.329
			l-23.458,5.865c-24.959,6.24-43.404,25.733-46.992,49.663c-2.562,17.089-6.499,61.506-7.855,77.193H20.033
			c-5.375,0-9.732,4.358-9.732,9.732c0,5.375,4.358,9.732,9.732,9.732h256.934V297c5.375,0,9.732-4.358,9.732-9.732
			C286.699,281.893,282.341,277.536,276.967,277.536z M106.164,61.801c0-25.718,16.618-42.336,42.336-42.336
			s42.336,16.618,42.336,42.336c0,30.126-20.97,59.693-42.336,59.693C127.134,121.494,106.164,91.926,106.164,61.801z
			 M170.879,156.86c-0.262,12.117-10.2,21.893-22.379,21.893s-22.116-9.776-22.379-21.893c4.584-5.605,6.606-12.402,7.396-18.478
			c4.764,1.664,9.775,2.576,14.983,2.576s10.219-0.912,14.983-2.576C164.273,144.458,166.295,151.256,170.879,156.86z
			 M66.505,206.976v70.56H52.028c1.462-16.794,5.201-58.535,7.565-74.308c2.38-15.877,15.425-29.406,32.463-33.665l15.645-3.911
			c3.581,15.743,16.055,28.135,31.843,31.592H76.237C70.862,197.244,66.505,201.602,66.505,206.976z M211.03,277.535H85.969v-60.827
			H211.03V277.535z M230.496,277.536v-70.56c0-5.375-4.358-9.732-9.732-9.732h-63.307c15.789-3.457,28.262-15.85,31.843-31.592
			l15.646,3.911c17.035,4.258,30.081,17.788,32.461,33.665c2.364,15.773,6.103,57.515,7.566,74.308H230.496z"/>
	</g>
</g>
<g>
</g>
<g>
</g>
<g>
</g>
<g>
</g>
<g>
</g>
<g>
</g>
<g>
</g>
<g>
</g>
<g>
</g>
<g>
</g>
<g>
</g>
<g>
</g>
<g>
</g>
<g>
</g>
<g>
</g>
</svg>
