<?xml version="1.0" encoding="iso-8859-1"?>
<!-- Generator: Adobe Illustrator 16.0.0, SVG Export Plug-In . SVG Version: 6.00 Build 0)  -->
<!DOCTYPE svg PUBLIC "-//W3C//DTD SVG 1.1//EN" "http://www.w3.org/Graphics/SVG/1.1/DTD/svg11.dtd">
<svg version="1.1" id="Capa_1" xmlns="http://www.w3.org/2000/svg" xmlns:xlink="http://www.w3.org/1999/xlink" x="0px" y="0px"
	 width="539.708px" height="539.708px" viewBox="0 0 539.708 539.708" style="enable-background:new 0 0 539.708 539.708;"
	 xml:space="preserve">
<g>
	<g>
		<path d="M282.532,281.397c0,0-46.81,16.438-118.37-6.752h-1.806c0,0-2.06,13.274-2.352,30.369h-2.034
			c-4.72-19.393-16.498-36.061-32.468-47.07l57.294,14.671c0,0,90.916,22.506,102.462-10.805
			c8.991-16.811,12.871-24.98,40.625-44.335c0,0-76.704-35.663-128.239,11.932c0,0-33.866,31.393-105.313-11.562
			c0,0-87.065-4.208-10.477,26.005c-0.572-0.016-1.149-0.049-1.737-0.049C35.941,243.802,0,279.734,0,323.915
			c0,44.186,35.941,80.126,80.118,80.126c38.145,0,70.13-26.8,78.155-62.566h4.646c2.341,11.168,6.341,21.39,12.943,28.361h151.643
			C327.501,369.83,282.761,340.801,282.532,281.397z M80.118,377.031c-29.289,0-53.114-23.825-53.114-53.116
			c0-29.281,23.832-53.111,53.114-53.111c22.62,0,41.929,14.237,49.577,34.211H84.46c-10.074,0-18.237,8.163-18.237,18.224
			c0,10.071,8.164,18.232,18.237,18.232h45.735C122.916,362.142,103.249,377.031,80.118,377.031z"/>
		<path d="M457.789,238.965c-18.495,0-35.579,6.175-49.311,16.552l-2.531-2.525c11.183-10.238,18.089-24.285,18.089-39.794
			c0-31.319-122.697-116.622-62.786-56.712c60.143,60.146-108.696,62.113-59.71,167.43c17.182,44.553,107.853,98.244,62.786,25.652
			c-39.542-63.683,0-79.732,0-79.732c6.029-0.263,11.832-1.3,17.291-2.999l8.278,8.269c-8.848,13.078-14.013,28.842-14.013,45.779
			c0,45.176,36.75,81.915,81.91,81.915s81.915-36.744,81.915-81.915C539.704,275.717,502.953,238.965,457.789,238.965z
			 M457.789,375.794c-30.271,0-54.914-24.635-54.914-54.91c0-9.462,2.408-18.371,6.639-26.146l38.727,38.72
			c2.643,2.643,6.094,3.961,9.549,3.961c3.456,0,6.905-1.318,9.553-3.961c5.276-5.265,5.276-13.816,0-19.087l-39.474-39.474
			c8.611-5.629,18.888-8.929,29.921-8.929c30.27,0,54.917,24.632,54.917,54.915C512.706,351.159,488.059,375.794,457.789,375.794z"
			/>
	</g>
</g>
<g>
</g>
<g>
</g>
<g>
</g>
<g>
</g>
<g>
</g>
<g>
</g>
<g>
</g>
<g>
</g>
<g>
</g>
<g>
</g>
<g>
</g>
<g>
</g>
<g>
</g>
<g>
</g>
<g>
</g>
</svg>
