<?xml version="1.0" encoding="iso-8859-1"?>
<!-- Generator: Adobe Illustrator 19.0.0, SVG Export Plug-In . SVG Version: 6.00 Build 0)  -->
<svg version="1.1" id="Capa_1" xmlns="http://www.w3.org/2000/svg" xmlns:xlink="http://www.w3.org/1999/xlink" x="0px" y="0px"
	 viewBox="0 0 511.893 511.893" style="enable-background:new 0 0 511.893 511.893;" xml:space="preserve">
<g>
	<g>
		<path d="M483.9,251.948c-2.211,0-3.999,1.788-3.999,3.999c0,130.105-105.846,235.951-235.951,235.951
			c-130.106,0-235.951-105.846-235.951-235.951c0-130.106,105.844-235.951,235.951-235.95c75.742,0,147.406,36.765,191.694,98.354
			c1.289,1.797,3.78,2.195,5.585,0.914c1.789-1.289,2.202-3.788,0.914-5.585C396.355,50.013,322.262,11.998,243.95,11.998
			C109.438,11.998,0,121.436,0,255.947s109.438,243.949,243.95,243.949c134.511,0,243.949-109.438,243.949-243.949
			C487.899,253.736,486.11,251.948,483.9,251.948z"/>
	</g>
</g>
<g>
	<g>
		<path d="M510.722,277.115l-23.995-23.996c-1.562-1.562-4.093-1.562-5.655,0s-1.562,4.093,0,5.655l23.995,23.995
			c0.781,0.781,1.805,1.172,2.828,1.172c1.024,0,2.046-0.39,2.827-1.172C512.284,281.207,512.284,278.677,510.722,277.115z"/>
	</g>
</g>
<g>
	<g>
		<path d="M486.727,253.119c-1.562-1.562-4.093-1.562-5.655,0l-23.995,23.996c-1.562,1.561-1.562,4.092,0,5.654
			c0.781,0.781,1.805,1.172,2.828,1.172s2.047-0.39,2.827-1.172l23.995-23.995C488.289,257.212,488.289,254.681,486.727,253.119z"/>
	</g>
</g>
<g>
	<g>
		<path d="M363.924,183.962H139.971c-2.211,0-4,1.789-4,3.999v175.964c0,2.21,1.789,3.999,4,3.999h223.954
			c2.21,0,4-1.789,3.999-3.999V187.961C367.924,185.751,366.135,183.962,363.924,183.962z M359.925,359.926H143.97V191.96h215.955
			V359.926z"/>
	</g>
</g>
<g>
	<g>
		<path d="M366.753,185.134l-31.994-31.993c-0.75-0.75-1.765-1.172-2.827-1.172H171.965c-1.063,0-2.078,0.422-2.828,1.172
			l-31.994,31.993c-1.14,1.14-1.484,2.866-0.867,4.358s2.078,2.468,3.695,2.468h223.954c1.617,0,3.078-0.976,3.695-2.468
			C368.236,188,367.894,186.275,366.753,185.134z M149.626,183.962l23.994-23.995h156.656l23.995,23.995H149.626z"/>
	</g>
</g>
<g>
	<g>
		<path d="M245.738,152.389c-1.976-0.984-4.366-0.179-5.366,1.789l-15.997,31.994c-0.984,1.976-0.187,4.374,1.789,5.366
			c0.578,0.289,1.187,0.422,1.789,0.422c1.461,0,2.874-0.812,3.577-2.212l15.997-31.993
			C248.511,155.779,247.715,153.381,245.738,152.389z"/>
	</g>
</g>
<g>
	<g>
		<path d="M279.52,186.174l-15.996-31.994c-0.992-1.977-3.39-2.781-5.366-1.789c-1.977,0.992-2.773,3.389-1.789,5.366l15.997,31.993
			c0.703,1.398,2.116,2.21,3.577,2.21c0.602,0,1.211-0.133,1.788-0.42C279.708,190.548,280.504,188.15,279.52,186.174z"/>
	</g>
</g>
<g>
	<g>
		<path d="M227.953,183.961c-2.21,0-3.999,1.789-3.999,3.999v31.994c0,2.211,1.789,4,3.999,4c2.21,0,3.999-1.789,3.999-4V187.96
			C231.952,185.75,230.163,183.961,227.953,183.961z"/>
	</g>
</g>
<g>
	<g>
		<path d="M275.943,215.955h-47.99c-2.21,0-3.999,1.788-3.999,3.999s1.789,4,3.999,4h47.99c2.21,0,3.999-1.79,3.999-4
			C279.942,217.744,278.153,215.955,275.943,215.955z"/>
	</g>
</g>
<g>
	<g>
		<path d="M275.943,183.961c-2.211,0-3.999,1.789-3.999,3.999v31.994c0,2.211,1.788,4,3.999,4c2.21,0,3.999-1.789,3.999-4V187.96
			C279.942,185.75,278.153,183.961,275.943,183.961z"/>
	</g>
</g>
<g>
	<g>
		<path d="M227.953,215.955c-2.21,0-3.999,1.789-3.999,3.999v4c0,2.21,1.789,3.999,3.999,3.999c2.21,0,3.999-1.789,3.999-3.999v-4
			C231.952,217.744,230.163,215.955,227.953,215.955z"/>
	</g>
</g>
<g>
	<g>
		<path d="M243.95,215.955c-2.211,0-4,1.789-4,3.999v4c0,2.21,1.789,3.999,4,3.999c2.21,0,3.999-1.789,3.999-3.999v-4
			C247.949,217.744,246.16,215.955,243.95,215.955z"/>
	</g>
</g>
<g>
	<g>
		<path d="M259.946,215.955c-2.21,0-3.999,1.789-3.999,3.999v4c0,2.21,1.789,3.999,3.999,3.999c2.211,0,4-1.789,4-3.999v-4
			C263.946,217.744,262.157,215.955,259.946,215.955z"/>
	</g>
</g>
<g>
	<g>
		<path d="M275.943,215.955c-2.211,0-3.999,1.789-3.999,3.999v4c0,2.21,1.788,3.999,3.999,3.999c2.21,0,3.999-1.789,3.999-3.999v-4
			C279.942,217.744,278.153,215.955,275.943,215.955z"/>
	</g>
</g>
<g>
	<g>
		<path d="M347.928,327.931h-15.997c-2.21,0-3.999,1.789-3.999,4v15.996c0,2.211,1.789,4,3.999,4h15.997c2.21,0,3.999-1.789,3.999-4
			v-15.996C351.927,329.72,350.138,327.931,347.928,327.931z M343.928,343.928h-7.998v-7.998h7.998V343.928z"/>
	</g>
</g>
<g>
	<g>
		<path d="M315.934,327.931h-15.996c-2.211,0-3.999,1.789-3.999,4v15.996c0,2.211,1.788,4,3.999,4h15.996c2.211,0,4-1.789,4-4
			v-15.996C319.934,329.72,318.145,327.931,315.934,327.931z M311.935,343.928h-7.998v-7.998h7.998V343.928z"/>
	</g>
</g>
<g>
	<g>
		<path d="M235.951,327.931h-79.984c-2.21,0-3.999,1.789-3.999,4c0,2.21,1.789,3.999,3.999,3.999h79.984
			c2.211,0,3.999-1.789,3.999-3.999C239.95,329.72,238.161,327.931,235.951,327.931z"/>
	</g>
</g>
<g>
	<g>
		<path d="M195.96,343.928h-39.992c-2.21,0-3.999,1.789-3.999,3.999c0,2.211,1.789,4,3.999,4h39.992c2.21,0,3.999-1.789,3.999-4
			C199.959,345.717,198.17,343.928,195.96,343.928z"/>
	</g>
</g>
<g>
</g>
<g>
</g>
<g>
</g>
<g>
</g>
<g>
</g>
<g>
</g>
<g>
</g>
<g>
</g>
<g>
</g>
<g>
</g>
<g>
</g>
<g>
</g>
<g>
</g>
<g>
</g>
<g>
</g>
</svg>
