<?xml version="1.0" encoding="utf-8"?>
<!-- Svg Vector Icons : http://www.onlinewebfonts.com/icon -->
<!DOCTYPE svg PUBLIC "-//W3C//DTD SVG 1.1//EN" "http://www.w3.org/Graphics/SVG/1.1/DTD/svg11.dtd">
<svg version="1.1" xmlns="http://www.w3.org/2000/svg" xmlns:xlink="http://www.w3.org/1999/xlink" x="0px" y="0px" viewBox="0 0 1000 1000" enable-background="new 0 0 1000 1000" xml:space="preserve">
<metadata> Svg Vector Icons : http://www.onlinewebfonts.com/icon </metadata>
<g><g transform="translate(0.000000,512.000000) scale(0.100000,-0.100000)"><path d="M4581.5,5002.4c-1121.4-95.8-2173.8-578.9-2988.5-1368.7C410.3,2485.5-116.8,842.7,182.2-771.3C360.5-1735.6,801.4-2588.6,1485.7-3294c762.9-785.9,1715.6-1274.7,2814-1441.5c327.8-49.9,983.4-61.3,1278.6-19.2c1171.2,161,2139.3,638.3,2925.2,1443.4C9272.2-2525.3,9717-1599.5,9874.1-458.9c42.2,297.1,30.7,950.8-19.2,1282.4c-82.4,540.6-212.8,956.5-452.4,1449.2c-233.9,479.2-506.1,866.4-881.8,1253.7C7487.6,4590.3,6049.9,5128.9,4581.5,5002.4z M5624.3,2867L6233.9,1343h1535.4h1533.5L8087.6,430.6c-669-500.3-1221.1-916.3-1228.7-923.9c-5.7-7.7,124.6-697.8,293.3-1535.5c166.8-837.7,302.9-1525.9,299.1-1527.8c-1.9-1.9-550.2,404.5-1217.2,904.8c-665.2,500.3-1219.2,908.6-1230.7,908.6c-11.5,0-565.5-408.3-1230.7-908.6c-667.1-500.3-1215.3-906.7-1217.2-904.8c-3.8,1.9,132.3,690.1,299,1527.8c168.7,837.7,299,1527.8,293.3,1535.5c-7.7,7.7-559.7,423.6-1228.7,923.9L703.6,1343h1533.5h1535.4L4382.2,2867c335.5,837.7,615.3,1523.9,621.1,1523.9S5288.9,3704.7,5624.3,2867z"/></g></g>
</svg>