<svg height="512pt" viewBox="0 0 512 512.00049" width="512pt" xmlns="http://www.w3.org/2000/svg"><path d="m467 91.003906h-183.144531l44.667969-67.746094c4.558593-6.914062 2.648437-16.21875-4.265626-20.777343-6.917968-4.5625-16.222656-2.652344-20.78125 4.265625l-47.476562 72.007812-47.476562-72.007812c-4.558594-6.917969-13.863282-8.828125-20.78125-4.265625-6.917969 4.558593-8.824219 13.863281-4.265626 20.777343l44.664063 67.746094h-183.140625c-24.8125 0-45 20.183594-45 45v299.996094c0 24.8125 20.1875 45 45 45h15v16c0 8.285156 6.714844 15 15 15s15-6.714844 15-15v-16h332v16c0 8.285156 6.714844 15 15 15 8.28125 0 15-6.714844 15-15v-16h15c24.8125 0 45-20.1875 45-45v-299.996094c0-24.816406-20.1875-45-45-45zm15 344.996094c0 8.273438-6.730469 15-15 15h-422c-8.269531 0-15-6.726562-15-15v-299.996094c0-8.273437 6.730469-15 15-15h422c8.269531 0 15 6.726563 15 15zm0 0"/><path d="m377 151h-302c-8.285156 0-15 6.71875-15 15v240c0 8.285156 6.714844 15 15 15h302c8.28125 0 15-6.714844 15-15v-240c0-8.28125-6.71875-15-15-15zm-287 240v-210h272v210zm0 0"/><path d="m451.96875 226c0 8.285156-6.714844 15-15 15-8.28125 0-15-6.714844-15-15 0-8.28125 6.71875-15 15-15 8.285156 0 15 6.71875 15 15zm0 0"/><path d="m451.96875 286c0 8.285156-6.714844 15-15 15-8.28125 0-15-6.714844-15-15 0-8.28125 6.71875-15 15-15 8.285156 0 15 6.71875 15 15zm0 0"/><path d="m451.96875 346c0 8.285156-6.714844 15-15 15-8.28125 0-15-6.714844-15-15 0-8.28125 6.71875-15 15-15 8.285156 0 15 6.71875 15 15zm0 0"/></svg>