<?xml version="1.0" encoding="utf-8"?>
<!-- Svg Vector Icons : http://www.onlinewebfonts.com/icon -->
<!DOCTYPE svg PUBLIC "-//W3C//DTD SVG 1.1//EN" "http://www.w3.org/Graphics/SVG/1.1/DTD/svg11.dtd">
<svg version="1.1" xmlns="http://www.w3.org/2000/svg" xmlns:xlink="http://www.w3.org/1999/xlink" x="0px" y="0px" viewBox="0 0 1000 1000" enable-background="new 0 0 1000 1000" xml:space="preserve">
<metadata> Svg Vector Icons : http://www.onlinewebfonts.com/icon </metadata>
<g><g transform="translate(0.000000,511.000000) scale(0.100000,-0.100000)"><path d="M3800.7,4985.2c-777.1-173.9-1391.5-759-1660.4-1583.6c-85.8-266.6-124.2-524.1-124.2-847.1c0-725.1,250.8-1357.6,734.2-1843.3c619-628,1477.4-790.6,2261.2-429.2c813.2,377.3,1341.8,1269.6,1341.8,2272.5c0,1199.5-765.8,2231.9-1802.7,2430.7C4351.9,5023.6,3972.4,5023.6,3800.7,4985.2z"/><path d="M1797-662.3c-598.6-323-1149.8-637-1226.6-698c-160.4-126.5-341.1-361.4-406.6-535.4c-61-155.9-81.3-422.4-47.4-594.1c88.1-420.2,442.8-772.6,858.4-851.6c76.8-13.6,973.6-22.6,2489.4-22.6h2369.7v85.8c2.2,363.7,275.6,765.8,639.3,939.7c239.5,115.2,476.7,149.1,713.8,99.4c225.9-45.2,408.9-135.5,562.5-275.6l119.7-110.7l192,189.8c171.7,171.7,189.8,196.5,189.8,275.6c0,112.9-76.8,341.1-162.7,474.4c-142.3,223.7-338.8,372.7-858.4,646.1C6965.6-899.5,6455-621.6,6098.1-422.8L5447.5-61.4l-198.8-90.4c-713.8-332.1-1488.7-327.6-2164.1,15.8c-76.8,38.4-153.6,70-169.4,67.8C2899.4-70.4,2395.6-337,1797-662.3z"/><path d="M9222.3-2189.4c-155.9-29.4-244-101.6-783.9-639.3l-548.9-544.4l-266.6,264.3c-164.9,162.6-305,280.1-368.2,307.2c-131,61-359.2,63.2-483.4,4.5c-113-52-246.2-189.8-293.7-300.5c-47.4-117.4-42.9-345.6,9-463.1c27.1-56.5,232.7-295.9,533.1-612.2c542.2-576,603.2-621.2,847.1-621.2c244,0,275.6,24.8,1145.3,894.6c874.2,874.2,885.5,890,887.8,1143c0,178.5-54.2,302.7-185.2,420.2C9574.7-2207.4,9396.2-2153.2,9222.3-2189.4z"/></g></g>
</svg>