<?xml version="1.0" encoding="utf-8"?>
<!-- Svg Vector Icons : http://www.onlinewebfonts.com/icon -->
<!DOCTYPE svg PUBLIC "-//W3C//DTD SVG 1.1//EN" "http://www.w3.org/Graphics/SVG/1.1/DTD/svg11.dtd">
<svg version="1.1" xmlns="http://www.w3.org/2000/svg" xmlns:xlink="http://www.w3.org/1999/xlink" x="0px" y="0px" viewBox="0 0 1000 1000" enable-background="new 0 0 1000 1000" xml:space="preserve">
<metadata> Svg Vector Icons : http://www.onlinewebfonts.com/icon </metadata>
<g><path d="M955.6,577.4H611.8c-19,0-34.4,15.4-34.4,34.4v343.9c0,19,15.4,34.4,34.4,34.4h343.9c19,0,34.4-15.4,34.4-34.4V611.8C990,592.8,974.6,577.4,955.6,577.4z M955.6,921.2c0,19-15.4,34.4-34.4,34.4H646.1c-19,0-34.4-15.4-34.4-34.4V646.1c0-19,15.4-34.4,34.4-34.4h275.1c19,0,34.4,15.4,34.4,34.4V921.2z M388.2,577.4H44.4c-19,0-34.4,15.4-34.4,34.4v343.9c0,19,15.4,34.4,34.4,34.4h343.9c19,0,34.4-15.4,34.4-34.4V611.8C422.6,592.8,407.2,577.4,388.2,577.4z M388.2,921.2c0,19-15.4,34.4-34.4,34.4H78.8c-19,0-34.4-15.4-34.4-34.4V646.1c0-19,15.4-34.4,34.4-34.4h275.1c19,0,34.4,15.4,34.4,34.4V921.2z M955.6,10H611.8c-19,0-34.4,15.4-34.4,34.4v343.9c0,19,15.4,34.4,34.4,34.4h343.9c19,0,34.4-15.4,34.4-34.4V44.4C990,25.4,974.6,10,955.6,10z M955.6,353.9c0,19-15.4,34.4-34.4,34.4H646.1c-19,0-34.4-15.4-34.4-34.4V78.8c0-19,15.4-34.4,34.4-34.4h275.1c19,0,34.4,15.4,34.4,34.4V353.9z M388.2,10H44.4C25.4,10,10,25.4,10,44.4v343.9c0,19,15.4,34.4,34.4,34.4h343.9c19,0,34.4-15.4,34.4-34.4V44.4C422.6,25.4,407.2,10,388.2,10z M388.2,353.9c0,19-15.4,34.4-34.4,34.4H78.8c-19,0-34.4-15.4-34.4-34.4V78.8c0-19,15.4-34.4,34.4-34.4h275.1c19,0,34.4,15.4,34.4,34.4V353.9z"/></g>
</svg>