<svg id="Capa_1" enable-background="new 0 0 512 512" height="512" viewBox="0 0 512 512" width="512" xmlns="http://www.w3.org/2000/svg"><g><path d="m474.5 26h-437c-20.678 0-37.5 16.822-37.5 37.5v315c0 20.678 16.822 37.5 37.5 37.5h152.557l-9.027 31.594c-3.625 12.687-17.835 23.406-31.03 23.406h-49c-4.142 0-7.5 3.358-7.5 7.5s3.358 7.5 7.5 7.5h310c4.142 0 7.5-3.358 7.5-7.5s-3.358-7.5-7.5-7.5h-49c-13.195 0-27.405-10.719-31.03-23.406l-9.027-31.594h152.557c20.678 0 37.5-16.822 37.5-37.5v-315c0-20.678-16.822-37.5-37.5-37.5zm-157.953 425.715c2.058 7.204 6.149 13.824 11.512 19.285h-144.118c5.363-5.461 9.454-12.081 11.512-19.285l10.204-35.715h100.685zm180.453-73.215c0 12.407-10.093 22.5-22.5 22.5h-437c-12.407 0-22.5-10.093-22.5-22.5v-315c0-12.407 10.093-22.5 22.5-22.5h437c12.407 0 22.5 10.093 22.5 22.5z"/><path d="m482 348.5v-285c0-4.142-3.358-7.5-7.5-7.5h-437c-4.142 0-7.5 3.358-7.5 7.5v127.5c0 4.142 3.358 7.5 7.5 7.5s7.5-3.358 7.5-7.5v-120h422v270h-422v-120c0-4.142-3.358-7.5-7.5-7.5s-7.5 3.358-7.5 7.5v127.5c0 4.142 3.358 7.5 7.5 7.5h437c4.142 0 7.5-3.358 7.5-7.5z"/><circle cx="475.18" cy="378.473" r="7.5"/><circle cx="445.18" cy="378.473" r="7.5"/></g></svg>