<?xml version="1.0" encoding="iso-8859-1"?>
<!-- Generator: Adobe Illustrator 18.0.0, SVG Export Plug-In . SVG Version: 6.00 Build 0)  -->
<!DOCTYPE svg PUBLIC "-//W3C//DTD SVG 1.1//EN" "http://www.w3.org/Graphics/SVG/1.1/DTD/svg11.dtd">
<svg version="1.1" id="Capa_1" xmlns="http://www.w3.org/2000/svg" xmlns:xlink="http://www.w3.org/1999/xlink" x="0px" y="0px"
	 viewBox="0 0 380.267 380.267" style="enable-background:new 0 0 380.267 380.267;" xml:space="preserve">
<path d="M303.737,19.621h-54.739C240.571,7.463,226.669,0,211.427,0h-42.588c-15.241,0-29.143,7.462-37.571,19.621H76.529
	c-25.049,0-45.428,20.38-45.428,45.431v18.581c0,10.236,8.328,18.564,18.564,18.564h13.208l11.963,241.922
	c1.206,20.27,18.078,36.147,38.409,36.147h153.778c20.332,0,37.204-15.899,38.415-36.244l11.958-241.826h13.207
	c10.236,0,18.564-8.328,18.564-18.564V65.052C349.166,40.001,328.787,19.621,303.737,19.621z M166.436,293.537
	c0,9.492-7.722,17.213-17.214,17.213c-9.492,0-17.213-7.722-17.213-17.213V139.64c0-9.491,7.722-17.213,17.213-17.213
	c9.492,0,17.214,7.723,17.214,17.213V293.537z M248.258,293.537c0,9.492-7.722,17.213-17.214,17.213
	c-9.491,0-17.213-7.722-17.213-17.213V139.64c0-9.491,7.723-17.213,17.213-17.213c9.493,0,17.214,7.723,17.214,17.213V293.537z
	 M321.101,74.133H59.166v-9.081c0-9.576,7.789-17.367,17.363-17.367h62.986c5.681,0,10.801-3.425,12.97-8.675
	c2.746-6.649,9.166-10.946,16.355-10.946h42.588c7.189,0,13.608,4.296,16.354,10.944c2.168,5.251,7.289,8.677,12.97,8.677h62.986
	c9.574,0,17.364,7.791,17.364,17.367V74.133z"/>
<g>
</g>
<g>
</g>
<g>
</g>
<g>
</g>
<g>
</g>
<g>
</g>
<g>
</g>
<g>
</g>
<g>
</g>
<g>
</g>
<g>
</g>
<g>
</g>
<g>
</g>
<g>
</g>
<g>
</g>
</svg>
