<?xml version="1.0" encoding="iso-8859-1"?>
<!-- Generator: Adobe Illustrator 17.1.0, SVG Export Plug-In . SVG Version: 6.00 Build 0)  -->
<!DOCTYPE svg PUBLIC "-//W3C//DTD SVG 1.1//EN" "http://www.w3.org/Graphics/SVG/1.1/DTD/svg11.dtd">
<svg version="1.1" id="Capa_1" xmlns="http://www.w3.org/2000/svg" xmlns:xlink="http://www.w3.org/1999/xlink" x="0px" y="0px"
	 viewBox="0 0 512 512" style="enable-background:new 0 0 512 512;" xml:space="preserve">
<g>
	<path d="M494.847,167.763C482.881,142.122,466.244,128,448,128H64c-18.244,0-34.881,14.122-46.848,39.764
		C6.091,191.465,0,222.802,0,256s6.091,64.534,17.152,88.236C29.119,369.877,45.756,384,64,384h39.963
		c0.009,0,0.018,0.001,0.027,0.001c0.005,0,0.01-0.001,0.016-0.001h303.988c0.005,0,0.011,0.001,0.016,0.001
		c0.009,0,0.018-0.001,0.027-0.001H448c18.244,0,34.881-14.122,46.847-39.764C505.908,320.534,512,289.197,512,256
		S505.908,191.465,494.847,167.763z M471.99,160h-38.903c-3.071-1.881-10.181-7.004-14.369-16H448
		C456.218,144,464.582,149.682,471.99,160z M64,144h29.282c-4.196,9.014-11.323,14.138-14.364,16H40.01
		C47.418,149.682,55.782,144,64,144z M40.01,352h38.904c3.071,1.881,10.181,7.004,14.369,16H64C55.782,368,47.418,362.317,40.01,352
		z M448,368h-29.282c4.196-9.014,11.323-14.138,14.364-16h38.908C464.582,362.317,456.218,368,448,368z M481.002,336H431
		c-1.214,0-2.412,0.276-3.504,0.808c-0.864,0.421-19.433,9.705-25.867,31.192H110.371c-6.434-21.487-25.003-30.771-25.867-31.192
		C83.412,336.276,82.214,336,81,336H30.998C21.327,314.537,16,286.223,16,256s5.327-58.538,14.998-80H81
		c1.214,0,2.412-0.276,3.504-0.808c0.864-0.421,19.433-9.705,25.867-31.192h291.258c6.434,21.487,25.003,30.771,25.867,31.192
		c1.092,0.532,2.29,0.808,3.504,0.808h50.002C490.673,197.462,496,225.777,496,256S490.673,314.537,481.002,336z"/>
	<path d="M384,168H128c-4.418,0-8,3.582-8,8v160c0,4.418,3.582,8,8,8h256c4.418,0,8-3.582,8-8V176C392,171.582,388.418,168,384,168z
		 M376,328H136V184h240V328z"/>
	<path d="M56,224H40c-4.418,0-8,3.582-8,8s3.582,8,8,8h16c4.418,0,8-3.582,8-8S60.418,224,56,224z"/>
	<path d="M104,224H88c-4.418,0-8,3.582-8,8s3.582,8,8,8h16c4.418,0,8-3.582,8-8S108.418,224,104,224z"/>
	<path d="M72,240c-4.418,0-8,3.582-8,8v16c0,4.418,3.582,8,8,8s8-3.582,8-8v-16C80,243.582,76.418,240,72,240z"/>
	<path d="M72,224c4.418,0,8-3.582,8-8v-16c0-4.418-3.582-8-8-8s-8,3.582-8,8v16C64,220.417,67.582,224,72,224z"/>
	<path d="M444,248c-6.617,0-12,5.383-12,12s5.383,12,12,12s12-5.383,12-12S450.617,248,444,248z"/>
	<path d="M444,192c-6.617,0-12,5.383-12,12s5.383,12,12,12s12-5.383,12-12S450.617,192,444,192z"/>
	<path d="M472,220c-6.617,0-12,5.383-12,12s5.383,12,12,12s12-5.383,12-12S478.617,220,472,220z"/>
	<path d="M416,220c-6.617,0-12,5.383-12,12s5.383,12,12,12s12-5.383,12-12S422.617,220,416,220z"/>
</g>
<g>
</g>
<g>
</g>
<g>
</g>
<g>
</g>
<g>
</g>
<g>
</g>
<g>
</g>
<g>
</g>
<g>
</g>
<g>
</g>
<g>
</g>
<g>
</g>
<g>
</g>
<g>
</g>
<g>
</g>
</svg>
