<?xml version="1.0"?>
<svg xmlns="http://www.w3.org/2000/svg" id="Layer_3" data-name="Layer 3" viewBox="0 0 64 64" width="512" height="512"><path d="M62.54,20.16l-30-19a1,1,0,0,0-1.08,0l-30,19A1,1,0,0,0,1.2,21.6l3,4a1,1,0,0,0,1.33.25L8,24.29V62a1,1,0,0,0,1,1H55a1,1,0,0,0,1-1V24.29l2.47,1.56a1,1,0,0,0,1.33-.25l3-4a1,1,0,0,0-.26-1.44ZM22,42v2H20V42Zm24,4v2H18V46ZM32,40V34H42v6Zm6,2v2H36V42Zm-8,8v3a1,1,0,0,0,1,1h9v7H24V50Zm10,2H32V50h8Zm2-2h2V61H42ZM22,50V61H20V50ZM54,61H46V50h1a1,1,0,0,0,1-1V45a1,1,0,0,0-1-1H40V42h3a1,1,0,0,0,1-1V33a1,1,0,0,0-1-1H31a1,1,0,0,0-1,1v8a1,1,0,0,0,1,1h3v2H24V41a1,1,0,0,0-1-1h-.13l1-1.45-1.66-1.1L21,39.2l-1.17-1.75-1.66,1.1,1,1.45H19a1,1,0,0,0-1,1v3H17a1,1,0,0,0-1,1v4a1,1,0,0,0,1,1h1V61H10V23L31,9.81V16.1A5,5,0,0,0,27,21a1,1,0,0,0,1,1h1a3,3,0,0,0,6,0h1a1,1,0,0,0,1-1,5,5,0,0,0-4-4.9V9.81L54,23ZM33,22a1,1,0,0,1-2,0Zm-3.83-2a3,3,0,0,1,5.66,0Zm29.58,3.66L32.53,7.15a1,1,0,0,0-1.06,0L5.25,23.66l-1.8-2.39L32,3.18,60.55,21.27Z"/></svg>
