<?xml version="1.0" encoding="iso-8859-1"?>
<!-- Generator: Adobe Illustrator 18.1.1, SVG Export Plug-In . SVG Version: 6.00 Build 0)  -->
<svg version="1.1" id="Capa_1" xmlns="http://www.w3.org/2000/svg" xmlns:xlink="http://www.w3.org/1999/xlink" x="0px" y="0px"
	 viewBox="0 0 33.919 33.919" style="enable-background:new 0 0 33.919 33.919;" xml:space="preserve">
<g>
	<path style="fill:#030104;" d="M14.079,18.442V1.45c0-0.802-0.647-1.45-1.448-1.45H4.266C3.462,0,2.819,0.648,2.819,1.45v16.993
		c0,0.797,0.643,1.447,1.447,1.447h8.365C13.432,19.889,14.079,19.239,14.079,18.442z M11.676,0.906c0.205,0,0.371,0.166,0.371,0.37
		c0,0.206-0.166,0.37-0.371,0.37c-0.201,0-0.369-0.164-0.369-0.37C11.307,1.072,11.475,0.906,11.676,0.906z M6.508,1.047h3.881V1.47
		H6.508V1.047z M3.901,15.292V2.444h9.096v12.848H3.901z M8.448,18.458c-0.51,0-0.922-0.414-0.922-0.925
		c0-0.509,0.412-0.922,0.922-0.922c0.51,0,0.924,0.413,0.924,0.922C9.372,18.044,8.958,18.458,8.448,18.458z"/>
	<polygon style="fill:#030104;" points="24.928,11.855 26.747,11.855 26.747,5.178 26.747,3.358 24.928,3.358 15.942,3.358 
		15.942,5.178 24.928,5.178 	"/>
	<polygon style="fill:#030104;" points="9.003,21.114 7.182,21.114 7.182,25.481 7.182,27.3 9.003,27.3 14.524,27.3 14.524,25.481 
		9.003,25.481 	"/>
	<path style="fill:#030104;" d="M29.696,13.197H17.348c-0.777,0-1.406,0.631-1.406,1.407v17.909c0,0.776,0.629,1.406,1.406,1.406
		h12.348c0.777,0,1.404-0.63,1.404-1.406V14.604C31.1,13.829,30.473,13.197,29.696,13.197z M23.524,33.393
		c-0.463,0-0.838-0.375-0.838-0.836s0.375-0.835,0.838-0.835c0.459,0,0.834,0.375,0.834,0.835
		C24.358,33.018,23.983,33.393,23.524,33.393z M29.678,30.988H17.366V14.89h12.312C29.678,14.89,29.678,30.988,29.678,30.988z"/>
</g>
<g>
</g>
<g>
</g>
<g>
</g>
<g>
</g>
<g>
</g>
<g>
</g>
<g>
</g>
<g>
</g>
<g>
</g>
<g>
</g>
<g>
</g>
<g>
</g>
<g>
</g>
<g>
</g>
<g>
</g>
</svg>
