<?xml version="1.0" encoding="iso-8859-1"?>
<!-- Generator: Adobe Illustrator 18.0.0, SVG Export Plug-In . SVG Version: 6.00 Build 0)  -->
<!DOCTYPE svg PUBLIC "-//W3C//DTD SVG 1.1//EN" "http://www.w3.org/Graphics/SVG/1.1/DTD/svg11.dtd">
<svg version="1.1" id="Capa_1" xmlns="http://www.w3.org/2000/svg" xmlns:xlink="http://www.w3.org/1999/xlink" x="0px" y="0px"
	 viewBox="0 0 309.023 309.023" style="enable-background:new 0 0 309.023 309.023;" xml:space="preserve">
<g>
	<path d="M221.621,50.647c-0.276-2.496-1.837-4.716-4.11-5.867L157.901,14.58c-2.131-1.08-4.648-1.08-6.779,0L91.51,44.778
		c-2.521,1.277-4.11,3.863-4.11,6.69v0.001v0.001v50.312L4.28,142.215c-2.496,1.187-4.138,3.65-4.272,6.411
		c-0.134,2.762,1.262,5.372,3.632,6.794l52.411,31.449v54.938c0,2.83,1.593,5.419,4.118,6.694l90.96,45.946
		c1.063,0.537,2.223,0.806,3.382,0.806c1.159,0,2.318-0.269,3.382-0.806l90.959-45.946c2.525-1.275,4.118-3.864,4.118-6.694v-54.938
		l52.411-31.449c2.371-1.422,3.767-4.032,3.633-6.794c-0.134-2.761-1.775-5.224-4.271-6.41l-83.122-40.438V50.647z M228.855,122.3
		l-7.233,3.632v-7.317L228.855,122.3z M154.512,29.678l43.014,21.792l-43.014,21.791l-43.016-21.793L154.512,29.678z
		 M87.399,118.616v7.314l-7.23-3.63L87.399,118.616z M23.356,149.758l40.104-19.061l76.048,38.18l-40.302,26.395L23.356,149.758z
		 M147.012,275.563l-75.96-38.37V195.87l24.471,14.684c1.189,0.714,2.525,1.069,3.859,1.069c1.433,0,2.863-0.41,4.109-1.226
		l43.521-28.503V275.563z M154.512,159.624l-52.112-26.163V63.675l48.723,24.684c1.065,0.54,2.227,0.81,3.39,0.81
		c1.162,0,2.324-0.27,3.39-0.81l48.72-24.682v69.785L154.512,159.624z M237.971,237.193l-75.959,38.37v-93.668l43.519,28.503
		c1.246,0.816,2.677,1.226,4.109,1.226c1.334,0,2.67-0.355,3.859-1.069l24.472-14.685V237.193z M209.814,195.272l-40.301-26.395
		l76.048-38.181l40.105,19.061L209.814,195.272z"/>
</g>
<g>
</g>
<g>
</g>
<g>
</g>
<g>
</g>
<g>
</g>
<g>
</g>
<g>
</g>
<g>
</g>
<g>
</g>
<g>
</g>
<g>
</g>
<g>
</g>
<g>
</g>
<g>
</g>
<g>
</g>
</svg>
