<?xml version="1.0"?>
<svg xmlns="http://www.w3.org/2000/svg" width="512" height="512" viewBox="0 0 128 128"><g><path d="M121.693,4.557H6.307a1.749,1.749,0,0,0-1.75,1.75V31.485a1.749,1.749,0,0,0,1.75,1.75h3.15v88.458a1.749,1.749,0,0,0,1.75,1.75H116.793a1.749,1.749,0,0,0,1.75-1.75V33.235h3.15a1.749,1.749,0,0,0,1.75-1.75V6.307A1.749,1.749,0,0,0,121.693,4.557Zm-6.65,115.386H12.957V33.235H115.043Zm4.9-90.208H8.057V8.057H119.943Z"/><path d="M91.712,16.1h2.765a1.75,1.75,0,0,0,0-3.5H91.712a1.75,1.75,0,0,0,0,3.5Z"/><path d="M101.375,16.1h10.691a1.75,1.75,0,0,0,0-3.5H101.375a1.75,1.75,0,0,0,0,3.5Z"/><path d="M64,110.637A34.048,34.048,0,1,0,29.952,76.589,34.087,34.087,0,0,0,64,110.637Zm0-64.6A30.548,30.548,0,1,1,33.452,76.589,30.583,30.583,0,0,1,64,46.041Z"/><path d="M48.841,94.2H65.668a15.242,15.242,0,0,0,0-30.483h-5.5V59.284a1.749,1.749,0,0,0-2.987-1.237L47.6,67.625a1.749,1.749,0,0,0,0,2.475l9.577,9.577a1.749,1.749,0,0,0,2.987-1.238V74h5.5a4.961,4.961,0,0,1,0,9.921H48.841a1.749,1.749,0,0,0-1.75,1.75v6.781A1.749,1.749,0,0,0,48.841,94.2Zm1.75-6.781H65.668a8.461,8.461,0,0,0,0-16.921h-7.25a1.749,1.749,0,0,0-1.75,1.75v1.963l-5.353-5.353,5.353-5.352v1.961a1.749,1.749,0,0,0,1.75,1.75h7.25a11.742,11.742,0,0,1,0,23.483H50.591Z"/></g></svg>
