<svg id="Layer_1" enable-background="new 0 0 512 512" height="512" viewBox="0 0 512 512" width="512" xmlns="http://www.w3.org/2000/svg"><g><g><g><path d="m247.198 240.324c-.644 0-1.296-.063-1.952-.192l-12.7-2.513c-5.418-1.071-8.941-6.333-7.869-11.751 1.072-5.417 6.334-8.942 11.751-7.868l12.7 2.513c5.418 1.071 8.941 6.333 7.869 11.751-.942 4.761-5.122 8.06-9.799 8.06z"/></g><g><path d="m270.585 209.123c-2.452 0-4.909-.896-6.838-2.705l-14.651-13.739c-4.029-3.778-4.232-10.106-.454-14.136 3.778-4.027 10.107-4.231 14.135-.454l14.651 13.739c4.029 3.778 4.232 10.106.454 14.136-1.969 2.099-4.63 3.159-7.297 3.159z"/></g></g><g><path d="m446.264 286.494c-24.5-44.906-32.599-125.149-2.961-176.485 1.447-2.506 1.737-5.517.796-8.253s-3.022-4.931-5.705-6.017l-90.124-36.475-4.009-21.797c-.461-2.507-1.862-4.743-3.917-6.252l-39.871-29.276c-1.715-1.259-3.789-1.939-5.918-1.939h-77.11c-2.129 0-4.203.68-5.918 1.939l-39.871 29.275c-2.055 1.509-3.456 3.745-3.917 6.252l-4.009 21.797-90.124 36.476c-2.683 1.086-4.763 3.28-5.705 6.017s-.651 5.747.796 8.253c29.638 51.336 21.54 131.579-2.961 176.485-1.012 1.854-1.411 3.983-1.138 6.079 3.146 24.189 12.814 62.748 22.164 100.037 9.21 36.731 18.734 74.714 21.73 97.748.57 4.38 3.945 7.867 8.304 8.579 49.558 8.099 82.796 13.063 139.204 13.063s89.646-4.964 139.204-13.063c4.359-.712 7.734-4.199 8.304-8.579 2.996-23.034 12.52-61.017 21.73-97.748 9.35-37.289 19.018-75.848 22.164-100.037.273-2.095-.126-4.224-1.138-6.079zm-106.271-161.66-28.762 4.793c-3.113.52-5.799 2.478-7.245 5.283s-1.483 6.129-.099 8.965l17.987 36.874-82.734 64.119c17.482-33.535 33.936-71.808 46.655-109.087 9.254-27.122 22.302-71.093 22.357-103.391l17.156 12.597zm-129.95 131.632c-.971-11.546-1.849-23.82-2.609-36.982l15.938 12.36c-4.387 8.543-8.845 16.78-13.329 24.622zm77.176-236.466c1.164 5.892 1.294 13.714.453 23.104h-63.436c-.828-9.332-.683-17.152.521-23.104zm-2.366 43.104c-3.467 18.87-9.551 41.493-17.987 66.219-3.371 9.878-7.009 19.824-10.86 29.726-14.072-36.085-24.082-69.605-28.948-95.945zm-81.038-30.69c.021 39.625 19.567 101.166 41.335 153.129-4.098 9.513-8.353 18.888-12.719 28.018l-42.306-32.808 17.988-36.877c1.384-2.836 1.347-6.16-.099-8.965-1.446-2.806-4.131-4.764-7.245-5.283l-28.762-4.793 14.684-79.847zm-118.952 260.702c13.402-25.924 21.636-59.962 22.68-94.023 1.015-33.129-4.717-64.225-16.252-88.936l68.152-27.583-8.946 48.643c-.485 2.637.109 5.358 1.649 7.553s3.897 3.679 6.542 4.12l25.573 4.262-15.676 32.137c-2.076 4.256-.882 9.384 2.859 12.286l15.114 11.721c3.871 81.97 12.033 131.389 19.934 179.186 3.563 21.554 7.009 42.407 9.936 65.535-34.696-1.646-62.563-5.532-98.175-11.01-1.286-5.487-2.637-11.112-4.029-16.816l48.46-83.936c2.762-4.783 1.123-10.898-3.66-13.66-4.781-2.76-10.899-1.123-13.66 3.66l-38.083 65.961c-.374-1.491-.747-2.981-1.12-4.469-8.805-35.12-17.898-71.383-21.298-94.631zm38.094 164.842c33.788 5.125 61.32 8.714 95.809 10.187.78 7.389 1.503 15.06 2.158 23.089-33.415-1.551-59.927-5.391-93.69-10.86-1.09-6.742-2.553-14.298-4.277-22.416zm282.881-70.212c-.373 1.488-.747 2.978-1.12 4.469l-38.082-65.961c-2.762-4.783-8.878-6.422-13.66-3.66-4.783 2.762-6.422 8.877-3.66 13.66l48.46 83.936c-1.392 5.704-2.744 11.329-4.029 16.817-12.299 1.891-22.913 3.474-33.151 4.865-5.472.744-9.306 5.783-8.562 11.256.682 5.016 4.972 8.654 9.896 8.654.449 0 .903-.03 1.36-.092 8.156-1.109 16.523-2.333 25.753-3.733-1.724 8.118-3.187 15.674-4.278 22.417-44.686 7.239-76.661 11.626-128.765 11.626-5.177 0-10.148-.045-14.96-.13-.638-8.044-1.342-15.728-2.101-23.123 5.476.096 11.143.147 17.061.147 5.626 0 11.154-.046 16.429-.135 5.522-.095 9.923-4.647 9.829-10.169s-4.653-9.903-10.168-9.829c-5.162.088-10.575.133-16.089.133-6.744 0-13.158-.069-19.328-.197-3.049-24.714-6.683-46.71-10.447-69.478-4.499-27.215-9.083-54.961-12.892-89.048l127.219-98.594c3.744-2.901 4.938-8.031 2.862-12.288l-15.676-32.137 25.573-4.262c2.645-.441 5.001-1.926 6.542-4.12s2.134-4.916 1.649-7.553l-8.946-48.643 68.152 27.583c-11.535 24.711-17.267 55.807-16.252 88.936 1.044 34.062 9.278 68.1 22.68 94.023-3.4 23.248-12.493 59.511-21.299 94.63z"/><path d="m349.168 226.261-61.423 49.569c-4.298 3.469-4.97 9.765-1.502 14.063 1.976 2.448 4.869 3.72 7.789 3.72 2.205 0 4.424-.726 6.274-2.218l61.423-49.569c4.298-3.469 4.97-9.765 1.502-14.063-3.469-4.297-9.764-4.97-14.063-1.502z"/><path d="m317.213 446.683h-.007c-5.523 0-9.996 4.478-9.996 10s4.48 10 10.003 10 10-4.478 10-10-4.477-10-10-10z"/></g></g></svg>