<?xml version="1.0" encoding="iso-8859-1"?>
<!-- Generator: Adobe Illustrator 18.0.0, SVG Export Plug-In . SVG Version: 6.00 Build 0)  -->
<!DOCTYPE svg PUBLIC "-//W3C//DTD SVG 1.1//EN" "http://www.w3.org/Graphics/SVG/1.1/DTD/svg11.dtd">
<svg version="1.1" id="Capa_1" xmlns="http://www.w3.org/2000/svg" xmlns:xlink="http://www.w3.org/1999/xlink" x="0px" y="0px"
	 viewBox="0 0 458.137 458.137" style="enable-background:new 0 0 458.137 458.137;" xml:space="preserve">
<g>
	<path d="M359.176,200.651l-76.885-78.269c-5.889-5.994-15.521-6.08-21.516-0.192c-5.994,5.888-6.081,15.522-0.192,21.516
		l66.011,67.199c15.118,0.017,24.224,0.027,48.279,0.054l-56.887,14.771l-39.825-35.657c-5.964-5.339-14.94-5.134-20.663,0.044
		c-6.859,6.208-6.753,16.893,0.046,22.983l46.935,41.99c3.807,3.408,9.159,4.751,14.192,3.445l61.732-16.93l-26.669,14.624
		l9.95,40.458c14.944,2.515,28.706,9.551,39.62,20.466c2.423,2.423,5.658,3.758,9.109,3.758c3.451,0,6.687-1.335,9.112-3.76
		c5.729-5.728,13.346-8.882,21.446-8.882c2.296,0,4.551,0.262,6.737,0.756l-25.255-102.691
		c-2.809-11.424-14.348-18.407-25.771-15.598C358.306,200.663,361.153,199.886,359.176,200.651z"/>
	<circle cx="370.613" cy="155.441" r="31.532"/>
	<circle cx="110.035" cy="161.259" r="32.028"/>
	<circle cx="252.4" cy="56.822" r="32.817"/>
	<path d="M87.005,349.322c5.298-5.297,12.341-8.216,19.833-8.216c7.492,0,14.536,2.918,19.834,8.216
		c22.762,22.761,59.799,22.762,82.562-0.001c10.937-10.937,28.732-10.936,39.668,0.001c11.382,11.381,26.331,17.071,41.281,17.071
		s29.9-5.691,41.281-17.072c5.298-5.297,12.342-8.216,19.834-8.216s14.536,2.918,19.834,8.216c22.762,22.761,59.8,22.761,82.562,0
		c5.923-5.923,5.923-15.525,0-21.447c-5.922-5.922-15.525-5.923-21.448,0c-10.936,10.936-28.731,10.937-39.668,0
		c-11.027-11.027-25.687-17.1-41.281-17.1s-30.255,6.073-41.281,17.1c-10.937,10.936-28.731,10.936-39.668,0
		c-22.763-22.763-59.8-22.764-82.562,0c-10.936,10.936-28.732,10.937-39.668,0c-11.027-11.027-25.687-17.1-41.282-17.1
		c-15.594,0-30.254,6.073-41.281,17.099c-5.188,5.188-11.919,7.91-18.729,8.176c-5.585,7.694-14.571,12.617-24.786,12.57
		c-8.568-0.076-16.475-3.774-22.033-9.821c0.05,3.814,1.522,7.613,4.432,10.523C27.203,372.082,64.241,372.084,87.005,349.322z"/>
	<path d="M432.248,395.614c-10.936,10.936-28.731,10.937-39.668,0.001c-11.027-11.027-25.687-17.1-41.281-17.1
		s-30.255,6.073-41.281,17.1c-10.937,10.936-28.731,10.936-39.668,0c-22.763-22.763-59.8-22.764-82.562-0.001
		c-10.936,10.936-28.732,10.937-39.668,0.001c-11.027-11.027-25.687-17.1-41.282-17.1c-15.594,0-30.254,6.073-41.281,17.099
		c-10.937,10.937-28.731,10.937-39.668,0c-5.922-5.922-15.524-5.923-21.447,0.001c-5.922,5.922-5.922,15.525,0,21.447
		c22.761,22.761,59.799,22.762,82.563,0c5.298-5.298,12.341-8.216,19.833-8.216c7.492,0,14.536,2.918,19.834,8.216
		c22.762,22.762,59.799,22.762,82.562,0c10.937-10.937,28.732-10.936,39.668,0c11.382,11.381,26.331,17.071,41.281,17.071
		s29.9-5.69,41.281-17.072c5.298-5.298,12.342-8.216,19.834-8.216s14.536,2.918,19.834,8.216c22.762,22.761,59.8,22.761,82.562,0
		c5.923-5.922,5.923-15.525,0-21.447C447.773,389.691,438.17,389.692,432.248,395.614z"/>
	<path d="M22.087,333.781c0.029,0.001,0.058,0.005,0.087,0.005h0l0,0c7.901,0.062,15.507-6.046,15.593-15.788l0.468-52.981
		l49.236-32.096c-7.088,7.795-27.371,30.101-34.452,37.888l-0.318,36.033l-0.104,11.76c-0.001,0.111-0.009,0.22-0.011,0.331
		c2.734-1.723,3.158-3.286,9.708-8.289c11.627-8.882,25.554-14.048,40.314-14.877c0.001,0,0.003,0,0.005,0l22.964-60.548
		l44.235-17.267c3.495-1.365,6.375-3.954,8.101-7.285l33.39-64.43c3.927-7.577,0.968-16.904-6.61-20.831
		c-7.578-3.926-16.904-0.967-20.831,6.61l-30.712,59.261l-40.084,15.647l-35.987-13.649c-11.172-4.237-23.665,1.385-27.902,12.557
		l-3.923,10.344l23.291-7.982l-54.095,34.222c-4.336,2.827-6.968,7.635-7.014,12.81l-0.58,62.974
		C6.781,326.666,13.545,333.657,22.087,333.781z"/>
</g>
<g>
</g>
<g>
</g>
<g>
</g>
<g>
</g>
<g>
</g>
<g>
</g>
<g>
</g>
<g>
</g>
<g>
</g>
<g>
</g>
<g>
</g>
<g>
</g>
<g>
</g>
<g>
</g>
<g>
</g>
</svg>
